<svg width="38" height="39" viewBox="0 0 38 39" fill="none" xmlns="http://www.w3.org/2000/svg">
<g clip-path="url(#clip0_1691_9052)">
<path d="M35.72 19.896C35.72 18.661 35.6092 17.4735 35.4033 16.3335H19V23.0706H28.3733C27.9696 25.2477 26.7425 27.0922 24.8979 28.3272V32.6972H30.5267C33.82 29.6652 35.72 25.2002 35.72 19.896Z" fill="#4285F4"/>
<path d="M18.9997 36.9166C23.7022 36.9166 27.6447 35.357 30.5264 32.697L24.8976 28.327C23.338 29.372 21.343 29.9895 18.9997 29.9895C14.4635 29.9895 10.6239 26.9257 9.2543 22.8091H3.43555V27.3216C6.30138 33.0137 12.1914 36.9166 18.9997 36.9166Z" fill="#34A853"/>
<path d="M9.25426 22.8091C8.90593 21.7641 8.70801 20.6478 8.70801 19.4999C8.70801 18.352 8.90593 17.2357 9.25426 16.1907V11.6782H3.43551C2.21634 14.1052 1.58193 16.7839 1.58301 19.4999C1.58301 22.3103 2.25593 24.9703 3.43551 27.3216L9.25426 22.8091Z" fill="#FBBC05"/>
<path d="M18.9997 9.01009C21.5568 9.01009 23.8526 9.88884 25.6576 11.6147L30.653 6.61926C27.6368 3.80884 23.6943 2.08301 18.9997 2.08301C12.1914 2.08301 6.30138 5.98592 3.43555 11.678L9.2543 16.1905C10.6239 12.0738 14.4635 9.01009 18.9997 9.01009Z" fill="#EA4335"/>
</g>
<defs>
<clipPath id="clip0_1691_9052">
<rect width="38" height="38" fill="white" transform="translate(0 0.5)"/>
</clipPath>
</defs>
</svg>
