<svg xmlns="http://www.w3.org/2000/svg" style="display: none;">
  <defs>
    <symbol id="arrow_right" width="20" height="20" fill="none" viewBox="0 0 20 20">
      <path stroke="#222" stroke-linecap="round" stroke-width="2" d="M18.333 10H1.667m16.666 0-6.908-7.5m6.908 7.5-6.908 7.5"/>
    </symbol>
    <symbol id="arrow_icon" width="20" height="20" fill="none" viewBox="0 0 20 20">
      <path stroke="#222" stroke-linecap="round" stroke-linejoin="round" stroke-width="2" d="m3 17.37 14-14m0 0H4.75m12.25 0v12.25"/>
    </symbol>
    <symbol id="icons/calendar_4" width="20" height="20" fill="none" viewBox="0 0 20 20">
      <path fill="#111" fill-rule="evenodd" d="M13.45 10.815c.357 0 .647.29.647.647v1.508l1.027.842a.647.647 0 1 1-.82 1.001l-1.264-1.036a.647.647 0 0 1-.237-.5v-1.815c0-.357.29-.647.647-.647Z" clip-rule="evenodd"/>
      <path fill="#111" fill-rule="evenodd" d="M8.136 2.634h3.456c1.5 0 2.691 0 3.624.126.962.129 1.746.402 2.365 1.021.69.69.95 1.586 1.06 2.705a.647.647 0 0 1-1.287.127c-.1-1.006-.311-1.54-.688-1.917-.339-.338-.804-.544-1.622-.654-.837-.113-1.941-.114-3.5-.114h-3.36c-1.559 0-2.663.001-3.5.114-.819.11-1.284.316-1.622.654-.339.338-.544.804-.654 1.622-.113.837-.114 1.941-.114 3.5v1.635c0 1.559.001 2.663.114 3.5.11.818.315 1.284.654 1.622.514.514 1.302.707 3.096.753a.647.647 0 0 1-.033 1.293c-1.757-.044-3.058-.211-3.978-1.131-.62-.619-.892-1.403-1.022-2.365C1 14.192 1 13.001 1 11.501V9.77c0-1.5 0-2.691.125-3.624.13-.962.403-1.746 1.022-2.365.619-.619 1.403-.892 2.364-1.021.934-.126 2.125-.126 3.625-.126Z" clip-rule="evenodd"/>
      <path fill="#111" fill-rule="evenodd" d="M13.995 1c.357 0 .647.29.647.647v3.268a.647.647 0 1 1-1.294 0V1.647c0-.357.29-.647.647-.647Z" clip-rule="evenodd"/>
      <path fill="#111" d="M6.38 1.647a.647.647 0 0 0-1.294 0v3.268a.647.647 0 0 0 1.294 0V1.647ZM1.667 8.184c0-.357.29-.647.647-.647h4.789a.647.647 0 0 1 0 1.294H2.314a.647.647 0 0 1-.647-.647Z"/>
      <path fill="#111" fill-rule="evenodd" d="M13.45 8.831a4.256 4.256 0 1 0 0 8.512 4.256 4.256 0 0 0 0-8.512ZM7.9 13.087a5.55 5.55 0 1 1 11.1 0 5.55 5.55 0 0 1-11.1 0Z" clip-rule="evenodd"/>
    </symbol>
    <symbol id="caret" width="20" height="20" fill="none" viewBox="0 0 20 20">
      <path stroke="#222" stroke-linecap="round" stroke-linejoin="round" stroke-width="2" d="m1.875 6.194 8.125 7.5 8.125-7.5"/>
    </symbol>
  </defs>
</svg>
