<svg width="18" height="17" viewBox="0 0 18 17" fill="none" xmlns="http://www.w3.org/2000/svg">
<g clip-path="url(#clip0_1692_11143)">
<path d="M8.87783 16.9119L12.5837 7.31187H14.2941L18 16.9119H16.2896L15.414 14.4719H11.4638L10.5882 16.9119H8.87783ZM2.44344 14.5119L1.30317 13.3919L5.41629 9.35187C4.94118 8.8852 4.51005 8.35187 4.1229 7.75187C3.73575 7.15187 3.37955 6.47187 3.0543 5.71187H4.76471C5.0362 6.23187 5.30769 6.6852 5.57919 7.07187C5.85068 7.45853 6.17647 7.8452 6.55656 8.23186C7.00453 7.79186 7.46959 7.17507 7.95176 6.38147C8.43394 5.58787 8.79692 4.83133 9.04072 4.11187H0V2.51187H5.70136V0.911865H7.33032V2.51187H13.0317V4.11187H10.6697C10.3846 5.07187 9.95701 6.05853 9.38688 7.07187C8.81674 8.0852 8.25339 8.85853 7.69683 9.39187L9.65158 11.3519L9.04072 12.9919L6.55656 10.4919L2.44344 14.5119ZM11.9729 13.0719H14.905L13.4389 8.99187L11.9729 13.0719Z" fill="#2085E3"/>
</g>
<defs>
<clipPath id="clip0_1692_11143">
<rect width="18" height="16" fill="white" transform="translate(0 0.911865)"/>
</clipPath>
</defs>
</svg>
