<svg xmlns="http://www.w3.org/2000/svg" width="48" height="48" fill="none" viewBox="0 0 48 48">
  <rect width="48" height="48" fill="url(#a)" rx="10"/>
  <path fill="#fff" d="M39.63 17.696c.532 1.65.817 3.41.817 5.243 0 3.971-1.349 7.62-3.61 10.508a16.888 16.888 0 0 1-5.88 4.765.192.192 0 0 1-.253-.094c-.038-.095 0-.2.088-.245a16.397 16.397 0 0 0 5.569-4.426A16.63 16.63 0 0 0 40.08 22.94c0-1.655-.241-3.254-.691-4.76l-10.11 20.339-.242.483-1.476 2.966s-.027.033-.05.033h-.707s-.038-.011-.05-.033l-1.097-2.21-.559-1.134-2.573-5.17-.4-.8v-1.35c0-.039.055-.05.07-.016l1.082 2.166 2.194 4.42 11.197-22.526.74-1.483a15.567 15.567 0 0 0-.647-.927 16.268 16.268 0 0 0-2.046-2.266 16.53 16.53 0 0 0-2.458-1.866 16.76 16.76 0 0 0-2.979-1.45 16.154 16.154 0 0 0-5.551-.977c-.928 0-1.838.077-2.721.227-.192.034-.384.067-.571.106-.225.05-.45.1-.675.155a.188.188 0 0 1-.225-.133.192.192 0 0 1 .132-.233 15.465 15.465 0 0 1 2.046-.378A16.156 16.156 0 0 1 23.732 6c1.893 0 3.714.317 5.41.905.608.206 1.2.45 1.771.728.11.05.214.105.318.155a16.96 16.96 0 0 1 5.996 5.138c.126.177.253.355.373.538l.017-.033.252-.505H42l-2.364 4.76-.006.01Z"/>
  <path fill="#fff" d="M30.403 10.826c.027.09-.088.145-.143.072a5.337 5.337 0 0 0-3.582-2.26c-.055-.005-.104-.017-.16-.022l-.12-.017h-.022a56.676 56.676 0 0 0-5.37-.4v25.193a.055.055 0 0 1-.055.055h-3.226a.055.055 0 0 1-.055-.056V8.2c-.51.011-1.015.034-1.509.056l-.855.05c-1.037.066-2.041.16-3.001.283a3.965 3.965 0 0 0-.516.067h-.016a5.324 5.324 0 0 0-3.445 2.221c-.055.078-.17.017-.143-.072l.532-1.633.5-1.538H29.37l1.032 3.188v.005Z"/>
  <path fill="#fff" d="M16.875 21.923c0 .039-.055.05-.072.017l-4.427-8.909a.066.066 0 0 1 .06-.094h4.06c.071 0 .093.1.027.128-.592.255-2.216 1.46.352 7.503v1.355Z"/>
  <path fill="#fff" d="M23.727 39.678a.186.186 0 0 1-.187.19 16.55 16.55 0 0 1-5.87-1.145 16.804 16.804 0 0 1-7.055-5.276A16.961 16.961 0 0 1 7 22.94c0-1.777.274-3.493.774-5.104a16.807 16.807 0 0 1 2.458-4.899 17.163 17.163 0 0 1 1.799-2.104 16.927 16.927 0 0 1 1.717-1.489.183.183 0 0 1 .258.04c.06.083.043.2-.039.26a16.18 16.18 0 0 0-1.766 1.539c-.17.166-.335.338-.494.516a16.641 16.641 0 0 0-3.577 6.22 16.672 16.672 0 0 0-.762 5.021c0 3.988 1.393 7.648 3.719 10.508 1.739 2.138 4 3.832 6.583 4.876 1.059.428 2.178.75 3.335.944.829.14 1.674.217 2.54.228.1 0 .181.084.181.184Z"/>
  <defs>
    <linearGradient id="a" x1=".682" x2="54.919" y1="0" y2="38.167" gradientUnits="userSpaceOnUse">
      <stop stop-color="#F0CC75"/>
      <stop offset="1" stop-color="#B6904D"/>
    </linearGradient>
  </defs>
</svg>
