<svg width="211" height="63" viewBox="0 0 211 63" fill="none" xmlns="http://www.w3.org/2000/svg">
<path d="M87.7413 54.4508C84.8224 54.4508 83.4593 53.058 83.4593 51.1615V51.0726H84.5261V51.2652C84.5261 52.6876 85.4151 53.4581 87.7413 53.4581C89.7268 53.4581 90.6306 52.9098 90.6306 51.7838C90.6306 50.6725 89.9638 50.2725 88.5118 49.9761L86.4078 49.5761C84.7928 49.2649 83.5038 48.5834 83.5038 46.9387C83.5038 45.5904 84.6595 44.2273 87.5043 44.2273C90.3046 44.2273 91.5492 45.7089 91.5492 47.5166V47.6055H90.4824V47.4277C90.4824 45.9905 89.5934 45.22 87.4302 45.22C85.4596 45.22 84.5706 45.783 84.5706 46.8646C84.5706 47.9907 85.2225 48.3315 86.6893 48.6426L88.7785 49.0575C90.5565 49.3983 91.6974 50.1539 91.6974 51.6949C91.6974 53.1173 90.4972 54.4508 87.7413 54.4508Z" fill="#B6904D"/>
<path d="M96.5593 54.4508C94.2183 54.4508 92.6922 52.8654 92.6922 50.6429C92.6922 48.4204 94.2183 46.835 96.5593 46.835C98.604 46.835 100.204 48.05 100.204 49.8132V49.9317H99.1671V49.8428C99.1671 48.5389 98.2188 47.7981 96.5445 47.7981C94.5887 47.7981 93.7442 48.8501 93.7442 50.6429C93.7442 52.4357 94.5887 53.4877 96.5445 53.4877C98.2188 53.4877 99.1671 52.7469 99.1671 51.443V51.3541H100.204V51.4726C100.204 53.2358 98.604 54.4508 96.5593 54.4508Z" fill="#B6904D"/>
<path d="M102.666 54.3026H101.614V44.3754H102.666V49.2205H102.74C102.977 47.9907 103.925 46.835 105.792 46.835C107.837 46.835 108.859 48.1981 108.859 50.0502V54.3026H107.807V50.1836C107.807 48.5093 107.022 47.7981 105.377 47.7981C103.422 47.7981 102.666 49.0427 102.666 50.8651V54.3026Z" fill="#B6904D"/>
<path d="M115.919 46.0053H114.911V44.2569H115.919V46.0053ZM113.474 46.0053H112.466V44.2569H113.474V46.0053ZM114.185 54.4508C111.8 54.4508 110.214 52.8654 110.214 50.6429C110.214 48.4204 111.8 46.835 114.185 46.835C116.585 46.835 118.171 48.4204 118.171 50.6429C118.171 52.8654 116.585 54.4508 114.185 54.4508ZM114.185 53.5025C116.2 53.5025 117.134 52.4209 117.134 50.6429C117.134 48.8797 116.2 47.7833 114.185 47.7833C112.17 47.7833 111.251 48.8797 111.251 50.6429C111.251 52.4209 112.17 53.5025 114.185 53.5025Z" fill="#B6904D"/>
<path d="M120.623 54.3026H119.571V46.9832H120.519V49.2798H120.593C120.845 48.0352 121.882 46.835 123.704 46.835C125.764 46.835 126.786 48.3019 126.786 50.0354V54.3026H125.734V50.1836C125.734 48.6723 125.008 47.7981 123.334 47.7981C121.556 47.7981 120.623 48.8797 120.623 50.7614V54.3026Z" fill="#B6904D"/>
<path d="M129.55 54.3026H128.498V44.3754H129.55V49.2205H129.624C129.861 47.9907 130.81 46.835 132.676 46.835C134.721 46.835 135.744 48.1981 135.744 50.0502V54.3026H134.692V50.1836C134.692 48.5093 133.906 47.7981 132.262 47.7981C130.306 47.7981 129.55 49.0427 129.55 50.8651V54.3026Z" fill="#B6904D"/>
<path d="M140.966 54.4508C138.61 54.4508 137.113 52.9691 137.113 50.6429C137.113 48.4204 138.595 46.835 140.951 46.835C143.099 46.835 144.625 48.0796 144.625 50.2577C144.625 50.5244 144.596 50.7466 144.551 50.9392H138.106C138.165 52.5839 139.01 53.5766 140.951 53.5766C142.67 53.5766 143.47 52.9395 143.47 51.8727V51.769H144.522V51.8727C144.522 53.3988 143.01 54.4508 140.966 54.4508ZM140.936 47.7092C139.039 47.7092 138.18 48.6871 138.106 50.2873H143.633C143.633 50.2132 143.633 50.1391 143.633 50.065C143.633 48.5241 142.655 47.7092 140.936 47.7092Z" fill="#B6904D"/>
<path d="M147.073 46.0497H146.021V44.3754H147.073V46.0497ZM147.073 54.3026H146.021V46.9832H147.073V54.3026Z" fill="#B6904D"/>
<path d="M153.332 54.3026H151.746C150.294 54.3026 149.361 53.6951 149.361 51.9764V47.887H148.057V46.9832H149.361V45.2348H150.428V46.9832H153.332V47.887H150.428V52.0357C150.428 53.058 150.931 53.3395 151.998 53.3395H153.332V54.3026Z" fill="#B6904D"/>
<path d="M157.7 54.4508C155.448 54.4508 154.144 53.547 154.144 51.8579V51.8282H155.196V51.9171C155.196 53.1469 155.922 53.5766 157.715 53.5766C159.36 53.5766 159.923 53.1914 159.923 52.3468C159.923 51.5763 159.464 51.3245 158.249 51.1318L156.293 50.8503C154.959 50.6725 154.115 50.1539 154.115 48.939C154.115 47.6499 155.345 46.835 157.36 46.835C159.464 46.835 160.827 47.724 160.827 49.4427V49.4724H159.775V49.3983C159.775 48.3019 159.197 47.7092 157.33 47.7092C155.789 47.7092 155.152 48.0796 155.152 48.9538C155.152 49.7094 155.537 49.9761 156.752 50.1539L158.545 50.4058C160.116 50.6281 160.96 51.1615 160.96 52.3468C160.96 53.7248 159.597 54.4508 157.7 54.4508Z" fill="#B6904D"/>
<path d="M163.394 46.0497H162.342V44.3754H163.394V46.0497ZM163.394 54.3026H162.342V46.9832H163.394V54.3026Z" fill="#B6904D"/>
<path d="M166.216 54.3026H165.164V46.9832H166.112V49.2798H166.186C166.438 48.0352 167.475 46.835 169.297 46.835C171.357 46.835 172.379 48.3019 172.379 50.0354V54.3026H171.327V50.1836C171.327 48.6723 170.601 47.7981 168.927 47.7981C167.149 47.7981 166.216 48.8797 166.216 50.7614V54.3026Z" fill="#B6904D"/>
<path d="M177.306 54.4508C175.054 54.4508 173.75 53.547 173.75 51.8579V51.8282H174.802V51.9171C174.802 53.1469 175.528 53.5766 177.321 53.5766C178.966 53.5766 179.529 53.1914 179.529 52.3468C179.529 51.5763 179.07 51.3245 177.855 51.1318L175.899 50.8503C174.565 50.6725 173.721 50.1539 173.721 48.939C173.721 47.6499 174.951 46.835 176.966 46.835C179.07 46.835 180.433 47.724 180.433 49.4427V49.4724H179.381V49.3983C179.381 48.3019 178.803 47.7092 176.936 47.7092C175.395 47.7092 174.758 48.0796 174.758 48.9538C174.758 49.7094 175.143 49.9761 176.358 50.1539L178.151 50.4058C179.722 50.6281 180.566 51.1615 180.566 52.3468C180.566 53.7248 179.203 54.4508 177.306 54.4508Z" fill="#B6904D"/>
<path d="M186.438 54.3026H184.852C183.4 54.3026 182.467 53.6951 182.467 51.9764V47.887H181.163V46.9832H182.467V45.2348H183.534V46.9832H186.438V47.887H183.534V52.0357C183.534 53.058 184.037 53.3395 185.104 53.3395H186.438V54.3026Z" fill="#B6904D"/>
<path d="M188.643 46.0497H187.591V44.3754H188.643V46.0497ZM188.643 54.3026H187.591V46.9832H188.643V54.3026Z" fill="#B6904D"/>
<path d="M194.902 54.3026H193.317C191.865 54.3026 190.931 53.6951 190.931 51.9764V47.887H189.627V46.9832H190.931V45.2348H191.998V46.9832H194.902V47.887H191.998V52.0357C191.998 53.058 192.502 53.3395 193.569 53.3395H194.902V54.3026Z" fill="#B6904D"/>
<path d="M199.123 54.4508C197.034 54.4508 196.011 52.9987 196.011 51.2652V46.9832H197.063V51.1022C197.063 52.6283 197.804 53.5025 199.493 53.5025C201.286 53.5025 202.22 52.4209 202.22 50.5392V46.9832H203.272V54.3026H202.323V52.0208H202.249C201.997 53.2654 200.945 54.4508 199.123 54.4508Z" fill="#B6904D"/>
<path d="M209.531 54.3026H207.945C206.493 54.3026 205.56 53.6951 205.56 51.9764V47.887H204.256V46.9832H205.56V45.2348H206.627V46.9832H209.531V47.887H206.627V52.0357C206.627 53.058 207.13 53.3395 208.197 53.3395H209.531V54.3026Z" fill="#B6904D"/>
<path d="M85.9729 36.5728V10.9903H85.259C77.6916 10.9903 76.1496 13.5975 76.1496 13.5975L77.2728 10.166H98.0332L99.1564 13.5975C99.1564 13.5975 97.6619 10.9903 90.0469 10.9903H89.3711V36.5824H85.9634L85.9729 36.5728Z" fill="url(#paint0_linear_1532_13788)"/>
<path d="M116.224 36.5728C116.09 36.8029 115.709 36.7837 115.586 36.5728L102.279 10.1564H105.991C105.991 10.1564 104.982 12.2076 106.743 15.7349C107.171 16.5976 114.834 32.0008 114.834 32.0008L125.704 10.1564H129.531L116.224 36.5728Z" fill="url(#paint1_linear_1532_13788)"/>
<path d="M146.674 9.6005C156.288 9.6005 161.095 16.473 161.095 23.3742C161.095 30.2754 156.288 37.1479 146.674 37.1479C137.06 37.1479 132.225 30.2467 132.225 23.3742C132.225 16.5017 137.031 9.6005 146.674 9.6005ZM144.77 35.413C153.489 35.413 158.487 27.8408 158.487 21.1888C158.487 15.9746 155.393 11.3258 148.578 11.3258C139.859 11.3258 134.823 18.8597 134.823 25.5213C134.823 30.7355 137.917 35.413 144.77 35.413Z" fill="url(#paint2_linear_1532_13788)"/>
<path d="M171.984 24.8695L162.228 10.166H166.349L174.973 23.0771C174.973 23.0771 182.484 13.1853 182.798 12.7636C183.074 12.3897 183.302 11.738 183.255 11.2108C183.207 10.6836 182.664 10.1564 182.664 10.1564H186.101L175.849 24.1314C175.687 24.3423 175.611 24.6011 175.611 24.8695V36.5728H172.203V25.5596C172.203 25.3104 172.127 25.0708 171.994 24.8695H171.984Z" fill="url(#paint3_linear_1532_13788)"/>
<path d="M210.345 36.5728L197.038 10.1564C196.933 9.93598 196.514 9.93598 196.4 10.1564L183.093 36.5728H186.653C186.653 36.5728 186.091 35.9786 186.091 34.8475C186.091 33.8315 186.567 32.873 187.433 31.1381L195.6 14.8723L201.54 26.6427C199.465 25.5404 195.838 24.6011 191.165 27.3424C191.165 27.3424 196.771 24.3806 202.968 29.4703L206.547 36.5632H210.335L210.345 36.5728Z" fill="url(#paint4_linear_1532_13788)"/>
<path d="M56.6175 20.1861C57.5408 23.0329 58.0358 26.0713 58.0358 29.2344C58.0358 36.0877 55.6942 42.3851 51.7725 47.3693C49.0501 50.8295 45.5567 53.6571 41.5684 55.5933C41.4066 55.67 41.2067 55.5933 41.1305 55.4303C41.0639 55.2674 41.1305 55.0853 41.2828 55.0086C45.0332 53.197 48.3267 50.5803 50.9443 47.3693C54.9708 42.433 57.3981 36.1165 57.3981 29.2344C57.3981 26.3781 56.9792 23.6176 56.1987 21.02L38.6556 56.1205L38.2368 56.9544L35.6763 62.0728C35.6763 62.0728 35.6287 62.1303 35.5906 62.1303H34.3627C34.3627 62.1303 34.2961 62.1111 34.277 62.0728L32.3733 58.2579L31.4024 56.3026L26.9381 47.3789L26.2432 45.9986V43.6695C26.2432 43.6024 26.3384 43.5832 26.3669 43.6407L28.2421 47.3789L32.0496 55.0086L51.4774 16.1316L52.7624 13.5724C52.4102 13.0261 52.0295 12.4893 51.6392 11.9717C50.5826 10.5627 49.3928 9.24957 48.0887 8.06103C46.7751 6.86289 45.3473 5.77978 43.8243 4.84045C42.5774 4.07365 41.2638 3.40269 39.9026 2.82759C39.4933 2.65506 39.0745 2.49211 38.6556 2.33875C35.6477 1.24606 32.4018 0.651783 29.0227 0.651783C27.414 0.651783 25.8339 0.785974 24.3014 1.04477C23.9682 1.10228 23.6351 1.15979 23.3114 1.22689C22.9211 1.31315 22.5309 1.39942 22.1406 1.49527C21.9693 1.53361 21.7979 1.43776 21.7503 1.26523C21.7027 1.0927 21.8075 0.91058 21.9788 0.862654C22.7403 0.670953 23.5208 0.508008 24.3014 0.383402C24.7107 0.316307 25.12 0.258796 25.5293 0.210871C26.6811 0.0670953 27.8423 0 29.0322 0C32.3162 0 35.4764 0.546348 38.4177 1.56236C39.4743 1.91701 40.5023 2.33875 41.4922 2.818C41.6826 2.90427 41.8635 3.00012 42.0443 3.08639C45.0618 4.61999 47.7746 6.66161 50.0781 9.09621C50.9253 9.9972 51.7154 10.9461 52.4483 11.9526C52.6672 12.2593 52.8862 12.566 53.0956 12.8823L53.1241 12.8248L53.562 11.9526H60.7296L56.627 20.1669L56.6175 20.1861Z" fill="url(#paint5_linear_1532_13788)"/>
<path d="M40.607 8.32941C40.6546 8.48277 40.4547 8.57862 40.3595 8.45401C38.9317 6.39323 36.7138 4.94588 34.1438 4.5529C34.0486 4.54331 33.9629 4.52414 33.8677 4.51456C33.7916 4.50497 33.7249 4.49539 33.6583 4.4858C33.6583 4.4858 33.6393 4.4858 33.6297 4.4858H33.6202C30.7075 4.12157 27.5758 3.89153 24.3014 3.79568V47.2735C24.3014 47.331 24.2538 47.3693 24.2062 47.3693H18.6092C18.552 47.3693 18.514 47.3214 18.514 47.2735V3.79568C17.6287 3.81485 16.753 3.85319 15.8963 3.89153C15.3918 3.92028 14.9064 3.94904 14.4114 3.97779C12.6123 4.09282 10.8704 4.25576 9.20463 4.46663C8.90003 4.4858 8.60495 4.52414 8.30987 4.58165C8.30035 4.58165 8.29083 4.58165 8.28131 4.58165C7.85297 4.65833 7.43414 4.76377 7.02484 4.89796C6.65361 5.02256 6.29189 5.15676 5.9397 5.32929C4.47381 6.01941 3.22686 7.09294 2.30354 8.41567C2.20835 8.54986 2.00846 8.44443 2.05605 8.29107L2.97937 5.47306L3.84557 2.818H38.8175L40.607 8.31982V8.32941Z" fill="url(#paint6_linear_1532_13788)"/>
<path d="M17.1337 27.4803C17.1337 27.5474 17.0386 27.5666 17.01 27.5091L9.32837 12.1347C9.2903 12.058 9.34741 11.9717 9.43308 11.9717H16.477C16.6007 11.9717 16.6388 12.1443 16.5245 12.1922C15.4965 12.6331 12.679 14.713 17.1337 25.1416V27.4803Z" fill="url(#paint7_linear_1532_13788)"/>
<path d="M29.0227 58.1237C29.0227 58.3058 28.8799 58.4496 28.699 58.4496C27.2046 58.4305 25.7292 58.3058 24.3014 58.0662C22.2929 57.7403 20.3606 57.194 18.514 56.4751C13.6689 54.5773 9.45212 51.4046 6.27286 47.3693C2.34161 42.3851 0 36.0877 0 29.2344C0 26.1672 0.475937 23.2054 1.34214 20.4257C1.523 19.8506 1.72289 19.2755 1.94182 18.71C2.87466 16.285 4.10258 14.0229 5.60654 11.9717C6.30141 11.0132 7.06291 10.0931 7.87201 9.22082C8.14805 8.92368 8.43361 8.62654 8.72869 8.33899C9.66153 7.41883 10.661 6.55617 11.7081 5.7702C11.8508 5.66476 12.0507 5.69352 12.1554 5.83729C12.2602 5.98107 12.2316 6.18236 12.0888 6.28779C11.0037 7.10252 9.97565 7.98435 9.02377 8.94285C8.72869 9.2304 8.44313 9.52754 8.16709 9.83426C7.53885 10.5148 6.94869 11.2241 6.3966 11.9621C4.71178 14.1955 3.3506 16.6876 2.37017 19.3618C2.22739 19.7644 2.09412 20.1574 1.96086 20.5695C1.09466 23.3013 0.637756 26.2151 0.637756 29.2344C0.637756 36.1165 3.05552 42.433 7.09147 47.3693C10.1089 51.0595 14.0306 53.983 18.514 55.785C20.3511 56.523 22.2929 57.079 24.3014 57.4144C25.7387 57.6541 27.2046 57.7883 28.7085 57.8074C28.8799 57.8074 29.0227 57.9512 29.0227 58.1237Z" fill="url(#paint8_linear_1532_13788)"/>
<defs>
<linearGradient id="paint0_linear_1532_13788" x1="2.98786" y1="-1.28391e-06" x2="56.2203" y2="126.822" gradientUnits="userSpaceOnUse">
<stop stop-color="#F0CC75"/>
<stop offset="1" stop-color="#B6904D"/>
</linearGradient>
<linearGradient id="paint1_linear_1532_13788" x1="2.98786" y1="-1.28391e-06" x2="56.2203" y2="126.822" gradientUnits="userSpaceOnUse">
<stop stop-color="#F0CC75"/>
<stop offset="1" stop-color="#B6904D"/>
</linearGradient>
<linearGradient id="paint2_linear_1532_13788" x1="2.98786" y1="-1.28391e-06" x2="56.2203" y2="126.822" gradientUnits="userSpaceOnUse">
<stop stop-color="#F0CC75"/>
<stop offset="1" stop-color="#B6904D"/>
</linearGradient>
<linearGradient id="paint3_linear_1532_13788" x1="2.98786" y1="-1.28391e-06" x2="56.2203" y2="126.822" gradientUnits="userSpaceOnUse">
<stop stop-color="#F0CC75"/>
<stop offset="1" stop-color="#B6904D"/>
</linearGradient>
<linearGradient id="paint4_linear_1532_13788" x1="2.98786" y1="-1.28391e-06" x2="56.2203" y2="126.822" gradientUnits="userSpaceOnUse">
<stop stop-color="#F0CC75"/>
<stop offset="1" stop-color="#B6904D"/>
</linearGradient>
<linearGradient id="paint5_linear_1532_13788" x1="2.98786" y1="-1.28391e-06" x2="56.2203" y2="126.822" gradientUnits="userSpaceOnUse">
<stop stop-color="#F0CC75"/>
<stop offset="1" stop-color="#B6904D"/>
</linearGradient>
<linearGradient id="paint6_linear_1532_13788" x1="2.98786" y1="-1.28391e-06" x2="56.2203" y2="126.822" gradientUnits="userSpaceOnUse">
<stop stop-color="#F0CC75"/>
<stop offset="1" stop-color="#B6904D"/>
</linearGradient>
<linearGradient id="paint7_linear_1532_13788" x1="2.98786" y1="-1.28391e-06" x2="56.2203" y2="126.822" gradientUnits="userSpaceOnUse">
<stop stop-color="#F0CC75"/>
<stop offset="1" stop-color="#B6904D"/>
</linearGradient>
<linearGradient id="paint8_linear_1532_13788" x1="2.98786" y1="-1.28391e-06" x2="56.2203" y2="126.822" gradientUnits="userSpaceOnUse">
<stop stop-color="#F0CC75"/>
<stop offset="1" stop-color="#B6904D"/>
</linearGradient>
</defs>
</svg>
