<svg width="1228" height="922" viewBox="0 0 1228 922" fill="none" xmlns="http://www.w3.org/2000/svg">
<g opacity="0.8">
<path opacity="0.3" fill-rule="evenodd" clip-rule="evenodd" d="M546.679 458.291C546.532 469.052 559.428 476.357 568.268 484.583C576.492 492.238 584.397 499.811 596.246 504.431C610.197 509.869 626.221 517.943 641.558 513.156C657.007 508.335 657.332 492.516 666.878 482.39C675.515 473.224 694.922 467.546 694.642 456.824C694.36 445.988 674.412 442.74 665.625 434.361C657.523 426.635 657.761 413.955 645.464 409.928C632.983 405.839 617.907 410.786 604.397 414.3C591.21 417.73 578.783 422.363 569.011 429.811C558.307 437.966 546.825 447.425 546.679 458.291Z" stroke="#EDAE6F" stroke-width="1.202"/>
<path opacity="0.3" fill-rule="evenodd" clip-rule="evenodd" d="M501.732 456.235C501.496 473.619 522.246 485.418 536.468 498.709C549.7 511.075 562.42 523.308 581.49 530.771C603.941 539.557 629.728 552.6 654.415 544.868C679.278 537.079 679.811 511.528 695.176 495.167C709.082 480.361 740.318 471.189 739.877 453.869C739.423 436.364 707.317 431.118 693.182 417.581C680.143 405.1 680.53 384.619 660.742 378.111C640.657 371.505 616.39 379.496 594.644 385.171C573.419 390.71 553.415 398.195 537.688 410.223C520.457 423.403 501.973 438.683 501.732 456.235Z" stroke="#EDAE6F" stroke-width="1.202"/>
<path opacity="0.3" fill-rule="evenodd" clip-rule="evenodd" d="M458.189 454.242C457.86 478.039 486.224 494.195 505.662 512.389C523.746 529.323 541.129 546.072 567.197 556.287C597.88 568.317 633.127 586.172 666.869 575.588C700.862 564.927 701.592 529.946 722.593 507.545C741.601 487.276 784.297 474.72 783.694 451.008C783.084 427.044 739.2 419.858 719.878 401.328C702.059 384.24 702.592 356.201 675.546 347.29C648.093 338.246 614.923 349.185 585.197 356.954C556.185 364.537 528.841 374.783 507.339 391.253C483.79 409.293 458.522 430.212 458.189 454.242Z" stroke="#EDAE6F" stroke-width="1.202"/>
<path opacity="0.3" fill-rule="evenodd" clip-rule="evenodd" d="M418.861 452.445C418.449 482.036 453.688 502.126 477.837 524.75C500.306 545.801 521.899 566.627 554.283 579.337C592.408 594.293 636.195 616.499 678.124 603.336C720.355 590.081 721.258 546.58 747.355 518.727C770.975 493.523 824.028 477.911 823.279 448.426C822.515 418.626 767.996 409.69 743.994 386.649C721.859 365.401 722.52 330.535 688.919 319.454C654.811 308.204 613.597 321.808 576.664 331.467C540.617 340.896 506.644 353.638 479.929 374.117C450.671 396.55 419.277 422.562 418.861 452.445Z" stroke="#EDAE6F" stroke-width="1.202"/>
<path opacity="0.3" fill-rule="evenodd" clip-rule="evenodd" d="M382.342 450.774C381.859 485.741 423.481 509.484 452.001 536.225C478.538 561.11 504.051 585.718 542.295 600.738C587.327 618.417 639.046 644.657 688.57 629.1C738.45 613.437 739.523 562.026 770.351 529.11C798.248 499.323 860.914 480.872 860.025 446.025C859.133 410.808 794.737 400.248 766.385 373.016C740.238 347.906 741.023 306.698 701.334 293.603C661.049 280.31 612.368 296.386 568.744 307.802C526.166 318.945 486.036 334.002 454.479 358.205C419.918 384.717 382.836 415.458 382.342 450.774Z" stroke="#EDAE6F" stroke-width="1.202"/>
<path opacity="0.3" fill-rule="evenodd" clip-rule="evenodd" d="M344.417 449.04C343.851 489.598 392.108 517.13 425.167 548.147C455.933 577.002 485.507 605.545 529.847 622.962C582.048 643.464 642.002 673.903 699.412 655.864C757.247 637.692 758.491 578.068 794.232 539.894C826.57 505.347 899.221 483.95 898.193 443.535C897.153 402.692 822.502 390.443 789.639 358.862C759.327 329.737 760.234 281.949 714.227 266.759C667.524 251.344 611.088 269.989 560.518 283.229C511.156 296.154 464.635 313.614 428.051 341.684C387.982 372.429 344.99 408.082 344.417 449.04Z" stroke="#EDAE6F" stroke-width="1.202"/>
<path opacity="0.3" fill-rule="evenodd" clip-rule="evenodd" d="M298.069 446.915C297.403 494.305 353.76 526.476 392.379 562.706C428.309 596.422 462.845 629.774 514.63 650.122C575.595 674.08 645.621 709.635 712.679 688.557C780.219 667.329 781.676 597.672 823.416 553.069C861.192 512.707 946.04 487.707 944.844 440.488C943.629 392.768 856.443 378.459 818.06 341.559C782.659 307.53 783.722 251.696 729.985 233.95C675.441 215.936 609.525 237.723 550.463 253.19C492.814 268.289 438.477 288.691 395.749 321.487C348.95 357.408 298.738 399.063 298.069 446.915Z" stroke="#EDAE6F" stroke-width="1.202"/>
<path opacity="0.3" fill-rule="evenodd" clip-rule="evenodd" d="M247.502 444.601C246.736 499.437 311.928 536.67 356.6 578.602C398.169 617.613 438.12 656.208 498.029 679.755C568.56 707.477 649.566 748.627 727.143 724.236C805.276 699.671 806.963 619.061 855.257 567.447C898.957 520.74 997.111 491.809 995.727 437.167C994.333 381.947 893.465 365.385 849.058 322.685C808.109 283.308 809.341 218.695 747.175 198.16C684.075 177.315 607.821 202.523 539.493 220.423C472.799 237.896 409.938 261.505 360.512 299.458C306.367 341.025 248.279 389.227 247.502 444.601Z" stroke="#EDAE6F" stroke-opacity="0.9" stroke-width="1.202"/>
<path opacity="0.3" fill-rule="evenodd" clip-rule="evenodd" d="M198.344 442.35C197.475 504.434 271.262 546.582 321.823 594.044C368.864 638.216 414.082 681.907 481.889 708.568C561.719 739.946 653.406 786.531 741.199 758.922C829.635 731.111 831.549 639.854 886.214 581.424C935.673 528.547 1046.77 495.796 1045.2 433.938C1043.62 371.423 929.457 352.673 879.199 304.333C832.854 259.756 834.25 186.61 763.889 163.362C692.471 139.765 606.165 168.302 528.831 188.565C453.345 208.344 382.198 235.072 326.25 278.036C264.969 325.095 199.223 379.662 198.344 442.35Z" stroke="#EDAE6F" stroke-opacity="0.8" stroke-width="1.202"/>
<path opacity="0.3" fill-rule="evenodd" clip-rule="evenodd" d="M153.396 440.295C152.431 508.999 234.077 555.641 290.023 608.17C342.078 657.049 392.11 705.403 467.135 734.904C555.463 769.632 656.917 821.183 754.062 790.632C851.916 759.859 854.03 658.865 914.511 594.201C969.245 535.686 1092.17 499.439 1090.44 430.984C1088.69 361.801 962.368 341.051 906.761 287.555C855.479 238.222 857.024 157.274 779.171 131.546C700.148 105.431 604.651 137.012 519.08 159.439C435.555 181.328 356.832 210.906 294.922 258.451C227.12 310.529 154.369 370.92 153.396 440.295Z" stroke="#EDAE6F" stroke-opacity="0.7" stroke-width="1.202"/>
<path opacity="0.3" fill-rule="evenodd" clip-rule="evenodd" d="M105.643 438.109C104.575 513.852 194.572 565.269 256.236 623.177C313.609 677.067 368.757 730.367 451.462 762.887C548.818 801.177 660.638 858.011 767.727 824.324C875.58 790.4 877.919 679.065 944.579 607.78C1004.91 543.273 1140.4 503.318 1138.5 427.849C1136.57 351.581 997.334 328.706 936.039 269.732C879.518 215.346 881.221 126.107 795.407 97.7443C708.305 68.9554 603.042 103.771 508.721 128.492C416.658 152.625 329.883 185.229 261.645 237.646C186.905 295.057 106.714 361.632 105.643 438.109Z" stroke="#EDAE6F" stroke-opacity="0.6" stroke-width="1.202"/>
<path opacity="0.3" fill-rule="evenodd" clip-rule="evenodd" d="M53.6736 435.731C52.5004 519.127 151.579 575.745 219.468 639.51C282.636 698.844 343.352 757.537 434.399 793.344C541.584 835.503 664.698 898.077 782.594 860.992C901.338 823.635 903.912 701.048 977.311 622.556C1043.73 551.525 1192.9 507.528 1190.81 424.434C1188.68 340.456 1035.39 315.268 967.908 250.332C905.681 190.45 907.554 92.1888 813.077 60.9583C717.182 29.259 601.292 67.5931 497.448 94.8144C396.087 121.385 300.553 157.289 225.425 215.002C143.142 278.216 54.8532 351.523 53.6736 435.731Z" stroke="#EDAE6F" stroke-opacity="0.5" stroke-width="1.202"/>
</g>
</svg>
